#N canvas -8 -8 1920 997 12;
#X obj 47 320 adc~ 1;
#X obj 48 360 delwrite~ buffer 60000;
#X obj 481 517 f;
#X obj 481 544 + 1;
#X obj 515 517 % 2;
#X obj 481 567 sel 1 2;
#X obj 481 635 bng 15 250 50 0 empty empty empty 17 7 0 10 -262144
-1 -1;
#X msg 504 636 stop;
#X text 562 548 rec / stop mechanism for recording into a buffer;
#N canvas 0 22 450 278 (subpatch) 0;
#X array radio_array 133568 float 2;
#X coords 0 1 133568 -1 200 140 1 0 0;
#X restore 1416 36 graph;
#X obj 262 770 delread4~ buffer;
#X obj 1010 224 f;
#X obj 1010 251 + 1;
#X obj 1044 224 % 2;
#X obj 1010 274 sel 1 2;
#X obj 1010 312 bng 15 250 50 0 empty empty empty 17 7 0 10 -262144
-1 -1;
#X msg 1045 308 stop;
#X text 1091 255 play / stop mechanism for reading from the radio_array
;
#X obj 1026 1145 dac~ 1 2;
#X obj 511 716 timer;
#X obj 511 738 / 1000;
#X floatatom 511 778 5 0 0 0 - - -;
#X obj 543 669 bng 15 250 50 0 empty empty empty 17 7 0 10 -262144
-1 -1;
#X text 1261 409 We can use this to only play certain part of the array!
;
#X text 1262 370 play starting at beginning for the specified number
of samples;
#X obj 586 781 s ellapsed;
#X obj 1178 313 r ellapsed;
#X obj 1125 377 pack f f;
#X obj 1178 347 expr $f1 * 44100;
#X msg 1125 348 0;
#X obj 736 829 print;
#X obj 736 783 array size radio_array;
#X obj 736 749 expr $f1 * 44100;
#X obj 736 711 r ellapsed;
#N canvas 0 22 450 278 (subpatch) 0;
#X array radio_input 3.7321e+006 float 2;
#X coords 0 1 3.7321e+006 -1 200 140 1 0 0;
#X restore 476 43 graph;
#X obj 262 841 tabwrite~ radio_input;
#X obj 481 476 sel 0;
#X obj 556 377 delay 3;
#X obj 449 345 t b f;
#X msg 526 415 0;
#X msg 556 414 1;
#X obj 481 442 spigot 1;
#X obj 1010 187 sel 0;
#X obj 1085 88 delay 3;
#X obj 978 56 t b f;
#X msg 1055 126 0;
#X msg 1085 125 1;
#X obj 1010 153 spigot 1;
#X obj 1010 431 tabplay~ radio_input;
#X obj 449 322 r bela_digitalIn11;
#X obj 978 33 r bela_digitalIn12;
#X obj 45 60 loadbang;
#X obj 45 113 s bela_setDigital;
#X text 43 35 set digital pins as discrete inputs;
#X msg 45 86 in 11 \, in 12;
#X obj 1080 453 adc~ 3;
#X obj 1081 538 expr~ 20 + $v1*19980;
#X obj 1105 801 pan;
#X obj 1170 439 loadbang;
#X obj 1170 458 tgl 15 0 empty empty empty 17 7 0 10 -262144 -1 -1
1 1;
#X obj 1170 473 metro 10;
#X obj 1081 557 snapshot~;
#X obj 1060 709 expr~ 20 + $v1*19980;
#X obj 1138 592 loadbang;
#X obj 1138 611 tgl 15 0 empty empty empty 17 7 0 10 -262144 -1 -1
1 1;
#X obj 1138 626 metro 10;
#X obj 1060 728 snapshot~;
#X obj 1060 608 adc~ 4;
#X obj 1080 473 /~ 0.806;
#X obj 1060 627 /~ 0.806;
#X obj 1014 580 lop~ 20000;
#X obj 1021 753 hip~ 0;
#X obj 1024 828 *~ 0.5;
#X obj 1090 828 *~ 0.5, f 7;
#X obj 1530 939 dac~ 27 28 29 30;
#X text 1656 938 output to oscilloscope;
#X text 1274 516 low-pass filter;
#X text 1275 703 high-pass filter;
#X obj 1081 507 expr~ (exp($v1*$f2)-1)/(exp($f2)-1);
#X obj 1323 457 loadbang;
#X msg 1323 480 10;
#X obj 1060 670 expr~ (exp($v1*$f2)-1)/(exp($f2)-1);
#X obj 1302 622 loadbang;
#X msg 1302 645 10;
#X obj 1091 948 delread4~ phasing;
#X obj 1269 898 *~ 0.2;
#X obj 1088 882 delwrite~ phasing 200;
#X floatatom 1671 1230 5 0 0 0 - - -;
#X obj 1364 882 /~ 0.806;
#X obj 1364 857 adc~ 6;
#X obj 1364 910 expr~ $v1*200;
#X obj 1128 1029 /~ 0.806;
#X obj 1128 1004 adc~ 7;
#X obj 1025 1087 *~, f 2;
#X obj 1081 1088 *~, f 2;
#X obj 1105 779 adc~ 5;
#X connect 0 0 1 0;
#X connect 2 0 3 0;
#X connect 3 0 4 0;
#X connect 3 0 5 0;
#X connect 4 0 2 1;
#X connect 5 0 6 0;
#X connect 5 1 7 0;
#X connect 6 0 19 0;
#X connect 6 0 35 0;
#X connect 7 0 22 0;
#X connect 7 0 35 0;
#X connect 10 0 35 0;
#X connect 11 0 12 0;
#X connect 12 0 13 0;
#X connect 12 0 14 0;
#X connect 13 0 11 1;
#X connect 14 0 15 0;
#X connect 14 1 16 0;
#X connect 15 0 29 0;
#X connect 16 0 48 0;
#X connect 19 0 20 0;
#X connect 20 0 21 0;
#X connect 20 0 25 0;
#X connect 22 0 19 1;
#X connect 22 0 32 0;
#X connect 26 0 28 0;
#X connect 27 0 48 0;
#X connect 28 0 27 1;
#X connect 29 0 27 0;
#X connect 31 0 30 0;
#X connect 32 0 31 0;
#X connect 33 0 32 0;
#X connect 36 0 2 0;
#X connect 37 0 40 0;
#X connect 38 0 39 0;
#X connect 38 0 37 0;
#X connect 38 1 41 0;
#X connect 39 0 41 1;
#X connect 40 0 41 1;
#X connect 41 0 36 0;
#X connect 42 0 11 0;
#X connect 43 0 46 0;
#X connect 44 0 45 0;
#X connect 44 0 43 0;
#X connect 44 1 47 0;
#X connect 45 0 47 1;
#X connect 46 0 47 1;
#X connect 47 0 42 0;
#X connect 48 0 70 0;
#X connect 48 1 15 0;
#X connect 49 0 38 0;
#X connect 50 0 44 0;
#X connect 51 0 54 0;
#X connect 54 0 52 0;
#X connect 55 0 68 0;
#X connect 56 0 61 0;
#X connect 57 0 72 1;
#X connect 57 1 73 1;
#X connect 58 0 59 0;
#X connect 59 0 60 0;
#X connect 60 0 61 0;
#X connect 61 0 70 1;
#X connect 62 0 66 0;
#X connect 63 0 64 0;
#X connect 64 0 65 0;
#X connect 65 0 66 0;
#X connect 66 0 71 1;
#X connect 67 0 69 0;
#X connect 68 0 78 0;
#X connect 68 0 74 3;
#X connect 69 0 74 2;
#X connect 69 0 81 0;
#X connect 70 0 71 0;
#X connect 71 0 72 0;
#X connect 71 0 73 0;
#X connect 72 0 93 0;
#X connect 73 0 86 0;
#X connect 78 0 56 0;
#X connect 79 0 80 0;
#X connect 80 0 78 1;
#X connect 81 0 62 0;
#X connect 82 0 83 0;
#X connect 83 0 81 1;
#X connect 84 0 85 0;
#X connect 84 0 94 0;
#X connect 85 0 86 0;
#X connect 88 0 90 0;
#X connect 89 0 88 0;
#X connect 90 0 84 0;
#X connect 91 0 94 1;
#X connect 91 0 93 1;
#X connect 92 0 91 0;
#X connect 93 0 18 0;
#X connect 93 0 74 0;
#X connect 94 0 18 1;
#X connect 94 0 74 1;
#X connect 95 0 57 0;
