#N canvas 17 69 1920 769 12;
#X obj 123 201 /~ 0.806;
#X obj 122 234 clip~ 0 1;
#X obj 122 165 lop~ 10;
#X obj 122 122 inlet~;
#X obj 122 382 outlet;
#X obj 122 330 expr cos(($f1*3.14159)/2);
#X obj 319 331 expr sin(($f1*3.14159)/2);
#X obj 319 380 outlet;
#X obj 331 127 loadbang;
#X obj 331 163 tgl 15 0 empty empty empty 17 7 0 10 -262144 -1 -1 1
1;
#X obj 331 190 metro 10;
#X obj 122 277 snapshot~;
#X connect 0 0 1 0;
#X connect 1 0 11 0;
#X connect 2 0 0 0;
#X connect 3 0 2 0;
#X connect 5 0 4 0;
#X connect 6 0 7 0;
#X connect 8 0 9 0;
#X connect 9 0 10 0;
#X connect 10 0 11 0;
#X connect 11 0 5 0;
#X connect 11 0 6 0;
